<?xml version="1.0" encoding="UTF-8"?>
<!-- Do not edit this file with editors other than draw.io -->
<!DOCTYPE svg PUBLIC "-//W3C//DTD SVG 1.1//EN" "http://www.w3.org/Graphics/SVG/1.1/DTD/svg11.dtd">
<svg xmlns="http://www.w3.org/2000/svg" style="background: transparent; background-color: transparent; color-scheme: light dark;" xmlns:xlink="http://www.w3.org/1999/xlink" version="1.1" width="58px" height="56px" viewBox="0 0 58 56" content="&lt;mxfile host=&quot;app.diagrams.net&quot; scale=&quot;1&quot; border=&quot;0&quot;&gt;&#xA;  &lt;diagram name=&quot;Page-1&quot; id=&quot;w4xXFIJneSKLXBBhLxo0&quot;&gt;&#xA;    &lt;mxGraphModel dx=&quot;240&quot; dy=&quot;144&quot; grid=&quot;1&quot; gridSize=&quot;10&quot; guides=&quot;1&quot; tooltips=&quot;1&quot; connect=&quot;1&quot; arrows=&quot;1&quot; fold=&quot;1&quot; page=&quot;1&quot; pageScale=&quot;1&quot; pageWidth=&quot;850&quot; pageHeight=&quot;1100&quot; math=&quot;0&quot; shadow=&quot;0&quot;&gt;&#xA;      &lt;root&gt;&#xA;        &lt;mxCell id=&quot;0&quot; /&gt;&#xA;        &lt;mxCell id=&quot;1&quot; parent=&quot;0&quot; /&gt;&#xA;        &lt;mxCell id=&quot;2&quot; parent=&quot;1&quot; style=&quot;html=1;verticalLabelPosition=bottom;align=center;labelBackgroundColor=#ffffff;verticalAlign=top;strokeWidth=1;strokeColor=#1B226D;shadow=0;shape=mxgraph.ios7.icons.cloud;&quot; value=&quot;&quot; vertex=&quot;1&quot;&gt;&#xA;          &lt;mxGeometry height=&quot;31.25&quot; width=&quot;56.5&quot; x=&quot;59.64&quot; as=&quot;geometry&quot; /&gt;&#xA;        &lt;/mxCell&gt;&#xA;        &lt;mxCell id=&quot;3&quot; parent=&quot;1&quot; style=&quot;sketch=0;aspect=fixed;pointerEvents=1;shadow=0;dashed=0;html=1;strokeColor=none;labelPosition=center;verticalLabelPosition=bottom;verticalAlign=top;align=center;fillColor=#1B226D;shape=mxgraph.mscae.enterprise.cluster_server&quot; value=&quot;&quot; vertex=&quot;1&quot;&gt;&#xA;          &lt;mxGeometry height=&quot;36.24&quot; width=&quot;28.99&quot; x=&quot;73.40999999999998&quot; y=&quot;18.879999999999995&quot; as=&quot;geometry&quot; /&gt;&#xA;        &lt;/mxCell&gt;&#xA;      &lt;/root&gt;&#xA;    &lt;/mxGraphModel&gt;&#xA;  &lt;/diagram&gt;&#xA;&lt;/mxfile&gt;&#xA;"><defs/><g><g data-cell-id="0"><g data-cell-id="1"><g data-cell-id="eT74A4Kzjl4KOUDEq2GS-3"/><g data-cell-id="eT74A4Kzjl4KOUDEq2GS-24"/><g data-cell-id="eT74A4Kzjl4KOUDEq2GS-33"><g><path d="M 48.89 31.25 C 53.12 30.72 56.15 26.68 55.64 22.23 C 55.13 17.78 51.28 14.61 47.05 15.15 C 47 8.5 42.57 2.78 36.38 1.39 C 30.19 0 23.92 3.31 21.28 9.35 C 19.33 7 16.23 6.12 13.41 7.1 C 10.6 8.09 8.62 10.75 8.4 13.86 C 3.83 13.68 -0.02 17.43 -0.19 22.23 C -0.36 27.03 3.21 31.07 7.79 31.25 Z" fill="#ffffff" style="fill: light-dark(#ffffff, var(--ge-dark-color, #121212)); stroke: light-dark(rgb(27, 34, 109), rgb(195, 201, 255));" stroke="#1b226d" stroke-miterlimit="10" pointer-events="all"/></g></g><g data-cell-id="eT74A4Kzjl4KOUDEq2GS-34"><g><rect x="13.41" y="18.88" width="28.99" height="36.24" fill="none" stroke="none" pointer-events="all"/><path d="M 13.44 47.44 L 13.44 20.26 C 13.41 19.92 13.51 19.59 13.73 19.33 C 13.95 19.07 14.26 18.91 14.59 18.88 L 25.76 18.88 C 26.53 18.88 27.16 19.49 27.2 20.26 L 27.2 25.14 L 22.05 25.14 C 20.83 25.34 19.87 26.31 19.67 27.54 L 19.67 40.46 L 15.49 40.46 L 15.49 41.88 L 19.67 41.88 L 19.67 43.29 L 15.49 43.29 L 15.49 44.64 L 19.67 44.64 L 19.67 47.44 Z M 21.04 27.9 C 21 27.23 21.49 26.63 22.16 26.56 L 33.32 26.56 C 34.11 26.52 34.78 27.11 34.84 27.9 L 34.84 55.12 L 21.04 55.12 Z M 15.49 24.41 L 25.15 24.4 L 25.15 23.06 L 15.49 23.06 Z M 23.13 30.78 L 23.13 32.12 L 32.71 32.12 L 32.71 30.78 Z M 32.78 48.17 L 23.06 48.17 L 23.06 49.55 L 32.78 49.55 Z M 23.06 50.94 L 23.06 52.35 L 32.78 52.35 L 32.78 50.75 Z M 42.4 47.44 L 36.2 47.44 L 36.2 44.64 L 40.31 44.64 L 40.31 43.29 L 36.2 43.29 L 36.2 41.88 L 40.35 41.88 L 40.35 40.46 L 36.2 40.46 L 36.2 27.54 C 35.96 26.13 34.74 25.12 33.32 25.14 L 28.64 25.14 L 28.64 20.26 C 28.67 19.53 29.25 18.93 29.97 18.88 L 41.16 18.99 C 41.85 19 42.4 19.57 42.4 20.26 Z M 40.31 24.45 L 40.31 23.06 L 30.62 23.06 L 30.62 24.45 Z" fill="#1b226d" style="fill: light-dark(rgb(27, 34, 109), rgb(195, 201, 255));" stroke="none" pointer-events="all"/></g></g></g></g></g></svg>